<?xml version="1.0" standalone="no"?>
<!DOCTYPE svg PUBLIC "-//W3C//DTD SVG 20010904//EN"
 "http://www.w3.org/TR/2001/REC-SVG-20010904/DTD/svg10.dtd">
<svg version="1.0" xmlns="http://www.w3.org/2000/svg"
 width="400.000000pt" height="140.000000pt" viewBox="0 0 400.000000 140.000000"
 preserveAspectRatio="xMidYMid meet">

<g transform="translate(0.000000,140.000000) scale(0.100000,-0.100000)"
fill="#000000" stroke="none">
<path d="M522 1294 c-193 -51 -337 -196 -388 -389 -18 -66 -17 -196 1 -264 49
-187 208 -341 396 -386 49 -11 129 -15 332 -15 l269 0 29 29 c36 36 37 70 5
108 l-24 28 -294 5 -293 5 -57 28 c-76 37 -159 128 -188 204 -32 84 -26 206
13 285 36 74 101 139 175 175 l57 28 292 5 c276 5 294 6 313 25 11 11 22 34
26 52 5 27 1 37 -24 63 l-30 30 -279 -1 c-207 0 -291 -4 -331 -15z"/>
<path d="M1319 1281 c-16 -16 -29 -39 -29 -50 0 -33 466 -957 492 -975 26 -18
61 -21 89 -6 27 15 489 940 489 980 0 64 -75 101 -128 64 -14 -9 -98 -166
-214 -397 l-191 -382 -193 387 c-116 232 -201 391 -213 398 -35 18 -71 11
-102 -19z"/>
<path d="M2555 1285 l-25 -24 0 -486 0 -486 25 -24 c31 -32 75 -32 112 -1 l28
24 0 487 0 487 -28 24 c-37 31 -81 31 -112 -1z"/>
<path d="M3270 1294 c-184 -48 -330 -190 -384 -374 -22 -73 -22 -218 0 -290
50 -170 172 -299 337 -358 62 -23 88 -26 182 -26 95 0 119 4 179 27 311 121
439 466 283 762 -108 205 -371 319 -597 259z m282 -186 c32 -15 79 -48 106
-75 179 -180 127 -476 -104 -589 -53 -26 -69 -29 -154 -29 -85 0 -101 3 -154
29 -79 39 -140 102 -179 184 -27 57 -31 78 -31 147 0 69 4 90 30 145 50 107
113 165 217 202 75 27 193 21 269 -14z"/>
<path d="M624 841 c-55 -24 -70 -96 -29 -136 24 -24 28 -25 184 -25 88 0 167
3 176 6 19 8 45 55 45 83 0 11 -11 33 -24 48 l-24 28 -154 2 c-84 2 -163 -1
-174 -6z"/>
</g>
</svg>
